<svg width="206" height="176" viewBox="0 0 206 176" fill="none" xmlns="http://www.w3.org/2000/svg">
<path opacity="0.1" d="M58.6 175.36C37.64 175.36 21.16 167.44 9.16 151.6C-2.68 135.6 -8.6 114.4 -8.6 88C-8.6 61.6 -2.68 40.48 9.16 24.64C21.16 8.63999 37.64 0.639989 58.6 0.639989C79.72 0.639989 96.2 8.63999 108.04 24.64C119.88 40.48 125.8 61.6 125.8 88C125.8 114.4 119.88 135.6 108.04 151.6C96.2 167.44 79.72 175.36 58.6 175.36ZM33.16 129.04C38.92 138.32 47.4 142.96 58.6 142.96C69.8 142.96 78.28 138.24 84.04 128.8C89.96 119.36 92.92 105.76 92.92 88C92.92 70.08 89.96 56.4 84.04 46.96C78.28 37.52 69.8 32.8 58.6 32.8C47.4 32.8 38.92 37.52 33.16 46.96C27.4 56.4 24.52 70.08 24.52 88C24.52 105.92 27.4 119.6 33.16 129.04ZM176.284 3.99999H205.084V172H171.964V39.04L140.284 47.92L132.124 19.6L176.284 3.99999Z" fill="white"/>
</svg>
