<svg width="214" height="176" viewBox="0 0 214 176" fill="none" xmlns="http://www.w3.org/2000/svg">
<path opacity="0.1" d="M21.6 175.36C0.640005 175.36 -15.84 167.44 -27.84 151.6C-39.68 135.6 -45.6 114.4 -45.6 88C-45.6 61.6 -39.68 40.48 -27.84 24.64C-15.84 8.63999 0.640005 0.639989 21.6 0.639989C42.72 0.639989 59.2 8.63999 71.04 24.64C82.88 40.48 88.8 61.6 88.8 88C88.8 114.4 82.88 135.6 71.04 151.6C59.2 167.44 42.72 175.36 21.6 175.36ZM-3.84 129.04C1.92 138.32 10.4 142.96 21.6 142.96C32.8 142.96 41.28 138.24 47.04 128.8C52.96 119.36 55.92 105.76 55.92 88C55.92 70.08 52.96 56.4 47.04 46.96C41.28 37.52 32.8 32.8 21.6 32.8C10.4 32.8 1.92 37.52 -3.84 46.96C-9.6 56.4 -12.48 70.08 -12.48 88C-12.48 105.92 -9.6 119.6 -3.84 129.04ZM175.095 72.16C186.455 75.52 195.655 81.44 202.695 89.92C209.895 98.24 213.495 108.32 213.495 120.16C213.495 137.44 207.655 150.96 195.975 160.72C184.455 170.48 170.295 175.36 153.495 175.36C140.375 175.36 128.615 172.4 118.215 166.48C107.975 160.4 100.535 151.52 95.895 139.84L124.215 123.52C128.375 136.48 138.135 142.96 153.495 142.96C161.975 142.96 168.535 140.96 173.175 136.96C177.975 132.8 180.375 127.2 180.375 120.16C180.375 113.28 177.975 107.76 173.175 103.6C168.535 99.44 161.975 97.36 153.495 97.36H146.295L133.575 78.16L166.695 34.96H100.935V3.99999H206.535V31.36L175.095 72.16Z" fill="white"/>
</svg>
