<svg width="77" height="240" viewBox="0 0 77 240" fill="none" xmlns="http://www.w3.org/2000/svg">
<rect opacity="0.5" x="74" width="3" height="240" fill="white"/>
<rect x="74" width="3" height="60" fill="white"/>
<path d="M5.88216 33.252C4.63416 33.252 3.58416 32.976 2.73216 32.424C1.88016 31.86 1.28016 31.098 0.932156 30.138L3.05616 28.896C3.54816 30.18 4.51416 30.822 5.95416 30.822C6.65016 30.822 7.16016 30.696 7.48416 30.444C7.80816 30.192 7.97016 29.874 7.97016 29.49C7.97016 29.046 7.77216 28.704 7.37616 28.464C6.98016 28.212 6.27216 27.942 5.25216 27.654C4.68816 27.486 4.20816 27.318 3.81216 27.15C3.42816 26.982 3.03816 26.76 2.64216 26.484C2.25816 26.196 1.96416 25.836 1.76016 25.404C1.55616 24.972 1.45416 24.468 1.45416 23.892C1.45416 22.752 1.85616 21.846 2.66016 21.174C3.47616 20.49 4.45416 20.148 5.59416 20.148C6.61416 20.148 7.50816 20.4 8.27616 20.904C9.05616 21.396 9.66216 22.086 10.0942 22.974L8.00616 24.18C7.50216 23.1 6.69816 22.56 5.59416 22.56C5.07816 22.56 4.67016 22.68 4.37016 22.92C4.08216 23.148 3.93816 23.448 3.93816 23.82C3.93816 24.216 4.10016 24.54 4.42416 24.792C4.76016 25.032 5.39616 25.296 6.33216 25.584C6.71616 25.704 7.00416 25.8 7.19616 25.872C7.40016 25.932 7.67016 26.034 8.00616 26.178C8.35416 26.31 8.61816 26.436 8.79816 26.556C8.99016 26.676 9.20616 26.838 9.44616 27.042C9.68616 27.246 9.86616 27.456 9.98616 27.672C10.1182 27.888 10.2262 28.152 10.3102 28.464C10.4062 28.764 10.4542 29.094 10.4542 29.454C10.4542 30.618 10.0282 31.542 9.17616 32.226C8.33616 32.91 7.23816 33.252 5.88216 33.252ZM16.8506 26.232H14.8166V29.976C14.8166 30.288 14.8946 30.516 15.0506 30.66C15.2066 30.804 15.4346 30.888 15.7346 30.912C16.0346 30.924 16.4066 30.918 16.8506 30.894V33C15.2546 33.18 14.1266 33.03 13.4666 32.55C12.8186 32.07 12.4946 31.212 12.4946 29.976V26.232H10.9286V24H12.4946V22.182L14.8166 21.48V24H16.8506V26.232ZM25.0465 24H27.3685V33H25.0465V31.938C24.3505 32.814 23.3725 33.252 22.1125 33.252C20.9125 33.252 19.8805 32.796 19.0165 31.884C18.1645 30.96 17.7385 29.832 17.7385 28.5C17.7385 27.168 18.1645 26.046 19.0165 25.134C19.8805 24.21 20.9125 23.748 22.1125 23.748C23.3725 23.748 24.3505 24.186 25.0465 25.062V24ZM20.7625 30.336C21.2305 30.804 21.8245 31.038 22.5445 31.038C23.2645 31.038 23.8585 30.804 24.3265 30.336C24.8065 29.856 25.0465 29.244 25.0465 28.5C25.0465 27.756 24.8065 27.15 24.3265 26.682C23.8585 26.202 23.2645 25.962 22.5445 25.962C21.8245 25.962 21.2305 26.202 20.7625 26.682C20.2945 27.15 20.0605 27.756 20.0605 28.5C20.0605 29.244 20.2945 29.856 20.7625 30.336ZM31.7961 25.548C32.0121 24.972 32.3661 24.54 32.8581 24.252C33.3621 23.964 33.9201 23.82 34.5321 23.82V26.412C33.8241 26.328 33.1881 26.472 32.6241 26.844C32.0721 27.216 31.7961 27.834 31.7961 28.698V33H29.4741V24H31.7961V25.548ZM41.2842 26.232H39.2502V29.976C39.2502 30.288 39.3282 30.516 39.4842 30.66C39.6402 30.804 39.8682 30.888 40.1682 30.912C40.4682 30.924 40.8402 30.918 41.2842 30.894V33C39.6882 33.18 38.5602 33.03 37.9002 32.55C37.2522 32.07 36.9282 31.212 36.9282 29.976V26.232H35.3622V24H36.9282V22.182L39.2502 21.48V24H41.2842V26.232Z" fill="white"/>
<path d="M29.7227 95.252C28.1507 95.252 26.9147 94.658 26.0147 93.47C25.1267 92.27 24.6827 90.68 24.6827 88.7C24.6827 86.72 25.1267 85.136 26.0147 83.948C26.9147 82.748 28.1507 82.148 29.7227 82.148C31.3067 82.148 32.5427 82.748 33.4307 83.948C34.3187 85.136 34.7627 86.72 34.7627 88.7C34.7627 90.68 34.3187 92.27 33.4307 93.47C32.5427 94.658 31.3067 95.252 29.7227 95.252ZM27.8147 91.778C28.2467 92.474 28.8827 92.822 29.7227 92.822C30.5627 92.822 31.1987 92.468 31.6307 91.76C32.0747 91.052 32.2967 90.032 32.2967 88.7C32.2967 87.356 32.0747 86.33 31.6307 85.622C31.1987 84.914 30.5627 84.56 29.7227 84.56C28.8827 84.56 28.2467 84.914 27.8147 85.622C27.3827 86.33 27.1667 87.356 27.1667 88.7C27.1667 90.044 27.3827 91.07 27.8147 91.778ZM38.5491 82.4H40.7091V95H38.2251V85.028L35.8491 85.694L35.2371 83.57L38.5491 82.4Z" fill="white"/>
<path d="M27.086 157.252C25.514 157.252 24.278 156.658 23.378 155.47C22.49 154.27 22.046 152.68 22.046 150.7C22.046 148.72 22.49 147.136 23.378 145.948C24.278 144.748 25.514 144.148 27.086 144.148C28.67 144.148 29.906 144.748 30.794 145.948C31.682 147.136 32.126 148.72 32.126 150.7C32.126 152.68 31.682 154.27 30.794 155.47C29.906 156.658 28.67 157.252 27.086 157.252ZM25.178 153.778C25.61 154.474 26.246 154.822 27.086 154.822C27.926 154.822 28.562 154.468 28.994 153.76C29.438 153.052 29.66 152.032 29.66 150.7C29.66 149.356 29.438 148.33 28.994 147.622C28.562 146.914 27.926 146.56 27.086 146.56C26.246 146.56 25.61 146.914 25.178 147.622C24.746 148.33 24.53 149.356 24.53 150.7C24.53 152.044 24.746 153.07 25.178 153.778ZM32.9235 157V155.146L37.2255 150.718C38.1855 149.71 38.6655 148.87 38.6655 148.198C38.6655 147.706 38.5095 147.31 38.1975 147.01C37.8975 146.71 37.5075 146.56 37.0275 146.56C36.0795 146.56 35.3775 147.052 34.9215 148.036L32.8335 146.812C33.2295 145.948 33.7995 145.288 34.5435 144.832C35.2875 144.376 36.1035 144.148 36.9915 144.148C38.1315 144.148 39.1095 144.508 39.9255 145.228C40.7415 145.936 41.1495 146.896 41.1495 148.108C41.1495 149.416 40.4595 150.76 39.0795 152.14L36.6135 154.606H41.3475V157H32.9235Z" fill="white"/>
<path d="M27.0333 219.252C25.4613 219.252 24.2253 218.658 23.3253 217.47C22.4373 216.27 21.9933 214.68 21.9933 212.7C21.9933 210.72 22.4373 209.136 23.3253 207.948C24.2253 206.748 25.4613 206.148 27.0333 206.148C28.6173 206.148 29.8533 206.748 30.7413 207.948C31.6293 209.136 32.0733 210.72 32.0733 212.7C32.0733 214.68 31.6293 216.27 30.7413 217.47C29.8533 218.658 28.6173 219.252 27.0333 219.252ZM25.1253 215.778C25.5573 216.474 26.1933 216.822 27.0333 216.822C27.8733 216.822 28.5093 216.468 28.9413 215.76C29.3853 215.052 29.6073 214.032 29.6073 212.7C29.6073 211.356 29.3853 210.33 28.9413 209.622C28.5093 208.914 27.8733 208.56 27.0333 208.56C26.1933 208.56 25.5573 208.914 25.1253 209.622C24.6933 210.33 24.4773 211.356 24.4773 212.7C24.4773 214.044 24.6933 215.07 25.1253 215.778ZM38.5454 211.512C39.3974 211.764 40.0874 212.208 40.6154 212.844C41.1554 213.468 41.4254 214.224 41.4254 215.112C41.4254 216.408 40.9874 217.422 40.1114 218.154C39.2474 218.886 38.1854 219.252 36.9254 219.252C35.9414 219.252 35.0594 219.03 34.2794 218.586C33.5114 218.13 32.9534 217.464 32.6054 216.588L34.7294 215.364C35.0414 216.336 35.7734 216.822 36.9254 216.822C37.5614 216.822 38.0534 216.672 38.4014 216.372C38.7614 216.06 38.9414 215.64 38.9414 215.112C38.9414 214.596 38.7614 214.182 38.4014 213.87C38.0534 213.558 37.5614 213.402 36.9254 213.402H36.3854L35.4314 211.962L37.9154 208.722H32.9834V206.4H40.9034V208.452L38.5454 211.512Z" fill="white"/>
</svg>
